# Blender v2.81 (sub 16) OBJ File: ''
# www.blender.org
o Circle
v 0.000000 1.000000 -0.000000
v 0.195090 0.980785 -0.000000
v 0.382683 0.923880 -0.000000
v 0.555570 0.831470 -0.000000
v 0.707107 0.707107 -0.000000
v 0.831470 0.555570 -0.000000
v 0.923880 0.382683 -0.000000
v 0.980785 0.195090 -0.000000
v 1.000000 0.000000 -0.000000
v 0.980785 -0.195090 0.000000
v 0.923880 -0.382683 0.000000
v 0.831470 -0.555570 0.000000
v 0.707107 -0.707107 0.000000
v 0.555570 -0.831470 0.000000
v 0.382683 -0.923880 0.000000
v 0.195090 -0.980785 0.000000
v -0.000000 -1.000000 0.000000
v -0.195091 -0.980785 0.000000
v -0.382684 -0.923879 0.000000
v -0.555571 -0.831469 0.000000
v -0.707107 -0.707106 0.000000
v -0.831470 -0.555570 0.000000
v -0.923880 -0.382683 0.000000
v -0.980785 -0.195089 0.000000
v -1.000000 0.000001 -0.000000
v -0.980785 0.195091 -0.000000
v -0.923879 0.382684 -0.000000
v -0.831469 0.555571 -0.000000
v -0.707106 0.707108 -0.000000
v -0.555569 0.831470 -0.000000
v -0.382682 0.923880 -0.000000
v -0.195089 0.980786 -0.000000
vt 0.354185 0.980689
vt 0.019311 0.354185
vt 0.645815 0.019311
vt 0.263208 0.943006
vt 0.056994 0.736791
vt 0.181332 0.888298
vt 0.111702 0.818667
vt 0.019311 0.645816
vt 0.000100 0.549236
vt 0.000100 0.450765
vt 0.056994 0.263209
vt 0.111702 0.181332
vt 0.181332 0.111703
vt 0.263208 0.056994
vt 0.354184 0.019311
vt 0.450764 0.000100
vt 0.549236 0.000100
vt 0.736790 0.056994
vt 0.818668 0.111702
vt 0.888297 0.181332
vt 0.943006 0.263208
vt 0.980689 0.354185
vt 0.999900 0.450764
vt 0.999900 0.549236
vt 0.980689 0.645816
vt 0.943006 0.736791
vt 0.888298 0.818668
vt 0.818667 0.888298
vt 0.736791 0.943006
vt 0.645814 0.980690
vt 0.549236 0.999900
vt 0.450764 0.999900
vn 0.0000 -0.0000 -1.0000
s off
f 1/1/1 9/2/1 17/3/1
f 1/1/1 2/4/1 5/5/1
f 2/4/1 3/6/1 5/5/1
f 3/6/1 4/7/1 5/5/1
f 5/5/1 6/8/1 7/9/1
f 7/9/1 8/10/1 5/5/1
f 8/10/1 9/2/1 5/5/1
f 9/2/1 10/11/1 11/12/1
f 11/12/1 12/13/1 13/14/1
f 13/14/1 14/15/1 15/16/1
f 15/16/1 16/17/1 13/14/1
f 16/17/1 17/3/1 13/14/1
f 17/3/1 18/18/1 19/19/1
f 19/19/1 20/20/1 21/21/1
f 21/21/1 22/22/1 23/23/1
f 23/23/1 24/24/1 21/21/1
f 24/24/1 25/25/1 21/21/1
f 25/25/1 26/26/1 27/27/1
f 27/27/1 28/28/1 29/29/1
f 29/29/1 30/30/1 31/31/1
f 31/31/1 32/32/1 29/29/1
f 32/32/1 1/1/1 29/29/1
f 9/2/1 11/12/1 17/3/1
f 11/12/1 13/14/1 17/3/1
f 17/3/1 19/19/1 25/25/1
f 19/19/1 21/21/1 25/25/1
f 25/25/1 27/27/1 29/29/1
f 1/1/1 5/5/1 9/2/1
f 25/25/1 29/29/1 17/3/1
f 29/29/1 1/1/1 17/3/1
